<svg width="410" height="396" viewBox="0 0 410 396" fill="none" xmlns="http://www.w3.org/2000/svg">
<path d="M18.67 178.29C15.7 176.75 11.95 174.23 9.10997 170.09C-8.09003 145.09 29.58 92.9801 35.07 85.3901C67.04 41.1601 126.4 3.67004 196.27 0.690038C264.48 -2.21996 317.19 28.85 345.18 52.6C348.93 55.78 372.93 76.57 390.26 111.34C398.26 127.39 409.49 150.72 399.82 170.08C397.97 173.79 395.77 176.51 394.15 178.28C395.44 179.9 400.4 186.53 399.82 196.04C399.36 203.62 395.63 208.78 394.15 210.63C395.13 214.42 396.11 218.21 397.09 222C405.17 227.07 409.92 235.99 409.39 245.22C408.77 255.95 401.09 265.36 390.26 268.44C390.26 268.47 389.71 273.41 389.71 273.43C389.71 273.48 388.9 280.68 388.9 280.73C389.9 281.45 398.22 287.67 398.46 298.49C398.64 306.58 394.2 312.11 393 313.52C395.72 317.1 399.53 323.12 401.2 331.28C405.89 354.16 389.43 372.7 386.17 376.36C375.09 388.84 361.65 393.61 354.75 395.49H54.65C51.85 394.43 18.64 381.39 10.47 354.51C6.19997 340.46 9.09997 328.55 9.09997 328.55C10.77 321.72 13.76 316.63 15.93 313.52C14.96 312.14 10.27 305.18 11.83 295.76C13.55 285.38 21.5 280.16 22.76 279.37C22.01 278.5 20.64 276.65 20.03 273.91C19.5 271.53 19.79 269.54 20.03 268.45C10.06 265.84 2.52996 257.76 0.899959 247.96C-0.960041 236.8 5.15996 225.39 15.93 220.4C17.3 218.2 18.66 216 20.03 213.8C19.29 213.27 10.03 206.39 10.47 194.67C10.83 184.97 17.57 179.19 18.67 178.28V178.29Z" fill="#302232"/>
<path d="M28.23 321.73C133.65 322.14 239.08 322.54 344.5 322.95C357.48 323 370.46 323.05 383.45 323.1C385.83 327.99 388.59 335.77 387.52 344.96C385.52 362.17 370.95 377.13 350.63 383.21H56.51C47.59 379.42 41.53 374.52 37.79 370.91C32.63 365.94 19.19 352.99 21.4 336.76C22.33 329.92 25.73 324.79 28.23 321.73Z" fill="#F6B13B"/>
<path d="M346.54 323.1C345.59 329.3 343.29 338.19 336.98 346.32C322.1 365.5 295.32 367.13 272.77 368.18C206.17 371.28 172.86 372.84 158.02 372.28C129.86 371.22 88.24 369.96 36.43 369.55C37.92 371.3 39.72 373.17 41.89 375.01C46.8 379.19 51.74 381.69 55.55 383.21C155.28 382.75 255 382.3 354.73 381.84C377.14 371.25 390.79 353.24 388.88 336.76C388.48 333.32 387.23 328.5 383.44 323.1H346.53H346.54Z" fill="#F5942C"/>
<path d="M76.4 343.59H51.09C49.7811 343.59 48.72 344.651 48.72 345.96V353.52C48.72 354.829 49.7811 355.89 51.09 355.89H76.4C77.7089 355.89 78.77 354.829 78.77 353.52V345.96C78.77 344.651 77.7089 343.59 76.4 343.59Z" fill="#F7D26B"/>
<path d="M214.39 331.29H200C198.691 331.29 197.63 332.351 197.63 333.66V341.22C197.63 342.529 198.691 343.59 200 343.59H214.39C215.699 343.59 216.76 342.529 216.76 341.22V333.66C216.76 332.351 215.699 331.29 214.39 331.29Z" fill="#F7D26B"/>
<path d="M334.6 355.88H301.09C299.781 355.88 298.72 356.941 298.72 358.25V365.81C298.72 367.119 299.781 368.18 301.09 368.18H334.6C335.909 368.18 336.97 367.119 336.97 365.81V358.25C336.97 356.941 335.909 355.88 334.6 355.88Z" fill="#F7D26B"/>
<path d="M30.96 286.21C30.44 286.42 24.19 289.06 22.76 295.77C21.68 300.87 23.82 306.25 28.22 309.43H93.71C90.48 305.28 85.22 299.51 77.4 294.4C70.67 290 64.32 287.58 59.64 286.2H30.95L30.96 286.21Z" fill="#B96045"/>
<path d="M112.32 309.43L199 308.06V293.41C196.24 293.36 191.9 293.45 186.7 294.4C177.79 296.02 174.31 298.7 166.21 299.86C163.1 300.31 158.44 300.66 152.55 299.86C150.97 299.13 148.63 298.13 145.72 297.13C139.76 295.08 136.28 293.89 132.06 294.4C127.94 294.9 125.1 296.77 122.5 298.5C117.48 301.83 114.29 306.05 112.33 309.43H112.32Z" fill="#B96045"/>
<path d="M209.93 290.31C208.99 291.69 207.7 294.02 207.2 297.14C206.22 303.31 209.06 308.08 209.93 309.44H250.22C249.06 306.74 246.84 302.52 242.72 298.51C237.47 293.4 231.84 291.23 228.83 290.31H209.94H209.93Z" fill="#B96045"/>
<path d="M290.91 309.43H382.53C383.02 308.87 387.96 303.13 386.16 295.77C385.02 291.1 381.81 288.42 380.7 287.57C374.72 290.61 365.89 294.2 354.74 295.77C337.03 298.26 322.69 294.36 315.12 291.67C307.05 297.59 298.98 303.51 290.91 309.43Z" fill="#B96045"/>
<path d="M30.96 267.08H266.74C269.65 268.86 277.32 273.01 287.79 272.54C296.36 272.16 302.62 268.87 305.55 267.08H376.59C377.67 268.11 379.36 270.08 379.32 272.54C379.27 275.82 376.19 278.05 372.49 280.74C370.21 282.4 366.72 284.55 361.94 286.2C345.42 285.29 328.9 284.38 312.38 283.47C308.26 286.78 302.28 291.22 294.62 295.77C280.14 304.35 272.43 308.92 264.57 306.7C257.23 304.63 257.16 298.73 246.81 291.67C239.13 286.43 231.41 284.38 226.32 283.47C214.94 281.7 206.11 282.51 200.36 283.47C179.79 286.92 171.4 297.04 158.01 293.03C156.6 292.61 152.06 290.93 142.98 287.57C138.31 285.84 134.5 284.4 132.05 283.47C128.81 285.22 124 287.95 118.39 291.67C106.78 299.37 105.05 302.5 100.63 302.6C92.5 302.78 89.54 292.4 80.14 284.84C73.29 279.33 61.35 273.99 39.3 276.64C38.19 276.29 34.47 274.96 32.32 271.18C31.44 269.64 31.1 268.16 30.95 267.08H30.96Z" fill="#93A93F"/>
<path d="M21.16 230.2H159.76L237.25 257.52L22.49 259.93C16.02 256.25 12.36 249.33 13.2 242.49C14.14 234.89 20.22 230.8 21.15 230.19L21.16 230.2Z" fill="#F15754"/>
<path d="M389.07 232.5C390.84 233.51 394.1 235.75 395.72 239.77C398.3 246.13 395.72 254.33 389.07 259.94H321.14C325.83 254.58 333.65 247.04 345.18 241.13C363.68 231.66 381.04 231.87 389.07 232.5Z" fill="#E24749"/>
<path d="M25.5 186.48C30.62 190.1 38.92 194.96 50.09 197.41C70.67 201.93 87.49 195.33 93.72 192.5C104.2 198.39 114.69 204.28 125.17 210.17L36.43 211.57C35.33 211.19 28.71 208.77 25.5 201.51C22.25 194.15 25.04 187.53 25.5 186.48Z" fill="#B96045"/>
<path d="M155.66 211.57H377.87C379.21 210.41 386.17 204.19 386.15 194.68C386.15 191.24 385.23 188.42 384.38 186.48C373.8 189.82 364.99 191.26 358.83 191.94C346.72 193.29 340.31 192.27 331.51 196.04C324.43 199.07 319.52 203.61 316.48 206.97H304.18C301.39 204.53 296.85 201.16 290.52 198.77C285.73 196.96 281.42 196.29 278.22 196.04C270.47 196.26 264.53 197.57 260.46 198.77C256.37 199.97 253.94 201.13 249.53 201.5C244.15 201.95 240.05 200.86 237.23 200.13C226.52 197.35 215.2 194.41 207.18 193.3C202.4 192.64 195.43 192.15 186.69 193.3C183.13 193.57 177.64 194.45 171.66 197.4C162.83 201.77 157.84 208.25 155.64 211.56L155.66 211.57Z" fill="#B96045"/>
<path d="M39.16 182.38H341.71C333.59 183.75 328.19 186.67 324.68 189.21C318.92 193.38 317.27 197.22 312.07 197.99C307.79 198.63 304.12 196.74 300.09 194.67C293.4 191.23 291.29 187.35 285.06 186.47C283.09 186.19 281.43 186.32 280.32 186.47C277.93 186.66 274.34 187.03 270.03 187.84C262.39 189.28 257.65 191.13 255 191.94C244.92 195.01 238.48 191 220.85 187.84C214.25 186.66 204.47 185.3 192.16 185.11C183.71 184.9 174.73 186.22 166.2 190.57C154 196.8 151.33 204.85 141.61 205.6C135.23 206.09 132.03 202.96 121.12 197.4C114.01 193.78 103.52 189.08 89.7 185.1C83.11 187.39 70.6 190.67 55.55 187.83C48.9 186.58 43.39 184.44 39.16 182.37V182.38Z" fill="#9DB03E"/>
<path d="M29.6 170.09H382.53C384.75 168.49 388.29 165.44 390.26 160.53C392.48 155 391.69 149.72 390.26 144.14C386.31 128.7 379.12 117.26 377.96 115.45C364.09 93.73 357.15 82.87 350.64 75.83C333.84 57.68 317.09 48.03 308.29 43.04C270.88 21.86 233.59 17.67 211.3 17.08C192.16 15.84 149.26 15.75 104.74 40.3C104.74 40.3 67.84 60.65 39.17 100.41C38.07 101.94 29.91 113.41 24.14 130.46C20.56 141.05 14.99 157.53 22.77 165.98C24.91 168.3 27.54 169.46 29.6 170.08V170.09Z" fill="#F6B03D"/>
<path d="M274.13 28.01C304.13 70.37 316.4 114 300.09 134.57C290.66 146.46 269.41 153.5 244.08 161.89C231.8 165.96 221.33 168.51 214.03 170.09H382.53C384.08 169.05 386.8 166.91 388.9 163.26C391.38 158.96 391.65 154.88 391.65 152.97C388.44 138.22 378.74 103.21 347.91 71.73C319.82 43.05 288.71 32.13 274.14 28.01H274.13Z" fill="#F5942C"/>
<path d="M93.33 84.02H73.79C72.7738 84.02 71.95 84.8438 71.95 85.86V91.74C71.95 92.7562 72.7738 93.58 73.79 93.58H93.33C94.3462 93.58 95.17 92.7562 95.17 91.74V85.86C95.17 84.8438 94.3462 84.02 93.33 84.02Z" fill="#F7D26B"/>
<path d="M166.84 52.6H135.52C134.36 52.6 133.42 53.5402 133.42 54.7V61.43C133.42 62.5898 134.36 63.53 135.52 63.53H166.84C168 63.53 168.94 62.5898 168.94 61.43V54.7C168.94 53.5402 168 52.6 166.84 52.6Z" fill="#F7D26B"/>
<path d="M231.57 28.01H216.97C216.097 28.01 215.39 28.7174 215.39 29.59V34.63C215.39 35.5026 216.097 36.21 216.97 36.21H231.57C232.443 36.21 233.15 35.5026 233.15 34.63V29.59C233.15 28.7174 232.443 28.01 231.57 28.01Z" fill="#F7D26B"/>
<path d="M315.75 58.07H278.97C277.81 58.07 276.87 59.0102 276.87 60.17V66.9C276.87 68.0598 277.81 69 278.97 69H315.75C316.91 69 317.85 68.0598 317.85 66.9V60.17C317.85 59.0102 316.91 58.07 315.75 58.07Z" fill="#F7D26B"/>
<path d="M231.31 84.02H210.4C209.384 84.02 208.56 84.8438 208.56 85.86V91.74C208.56 92.7562 209.384 93.58 210.4 93.58H231.31C232.326 93.58 233.15 92.7562 233.15 91.74V85.86C233.15 84.8438 232.326 84.02 231.31 84.02Z" fill="#F7D26B"/>
<path d="M351.53 144.13H330.62C329.604 144.13 328.78 144.954 328.78 145.97V151.85C328.78 152.866 329.604 153.69 330.62 153.69H351.53C352.546 153.69 353.37 152.866 353.37 151.85V145.97C353.37 144.954 352.546 144.13 351.53 144.13Z" fill="#F7D26B"/>
<path d="M164.37 120.91H148.92C147.904 120.91 147.08 121.734 147.08 122.75V128.63C147.08 129.646 147.904 130.47 148.92 130.47H164.37C165.386 130.47 166.21 129.646 166.21 128.63V122.75C166.21 121.734 165.386 120.91 164.37 120.91Z" fill="#F7D26B"/>
<path d="M100.16 135.94H76.52C75.5038 135.94 74.68 136.764 74.68 137.78V143.66C74.68 144.676 75.5038 145.5 76.52 145.5H100.16C101.176 145.5 102 144.676 102 143.66V137.78C102 136.764 101.176 135.94 100.16 135.94Z" fill="#F7D26B"/>
<path d="M254.01 123.64H243.72C242.411 123.64 241.35 124.701 241.35 126.01V133.57C241.35 134.879 242.411 135.94 243.72 135.94H254.01C255.319 135.94 256.38 134.879 256.38 133.57V126.01C256.38 124.701 255.319 123.64 254.01 123.64Z" fill="#F7D26B"/>
<path d="M29.6 217.9H382.53C383.97 218.76 384.84 220.33 384.8 222C384.74 224.49 382.67 225.78 382.53 225.87C378.54 225.98 373.22 226.36 367.04 227.47C362.3 228.32 352.61 230.39 341.08 235.67C334.29 238.78 328.36 242.75 316.49 250.7C299.91 261.8 296.51 265.36 289.17 265.73C281.8 266.1 276.5 262.95 271.41 260.27C255.62 251.93 237.67 248.55 220.86 242.51C208.23 237.97 190.24 232 167.58 226.12H29.6C29.25 225.66 28.23 224.18 28.23 222.02C28.23 221.44 28.3 219.65 29.6 217.92V217.9Z" fill="#FDD867"/>
</svg>
